{"title":"Millers Mountain S01E01 x264 RB58.mp4","uid":10108043,"size":313004033,"categoryP":"video","categoryS":"tv_shows","magnet":"?xt=urn:btih:56e8164bfdf7bdce650f3026748aed55f536845d&amp;dn=Millers+Mountain+S01E01+x264+RB58.mp4&amp;tr=udp%3A%2F%2Ftracker.openbittorrent.com%3A80&amp;tr=udp%3A%2F%2Fopen.demonii.com%3A1337&amp;tr=udp%3A%2F%2Ftracker.coppersurfer.tk%3A6969&amp;tr=udp%3A%2F%2Fexodus.desync.com%3A6969","seeders":1,"leechers":1,"uploader":"RedBaron58","files":1,"time":1399483805,"description":"Miller's Mountain S01E01 x264 - Comedy Playhouse BBC 2014 \n &lt;a href=&quot;\nhttp://www.comedy.co.uk/guide/tv/millers_mountain/&quot; rel=&quot;nofollow&quot; target=&quot;_NEW&quot;&gt;\nhttp://www.comedy.co.uk/guide/tv/millers_mountain/&lt;/a&gt;\n\nContains moderate Scottish accent\n\nThank you for your kind comments and thumbs ups on my other torrents, your feedback is welcome.\n\n\nAbout the Episode:\nThe Second in a trio of new one-off sitcoms under the banner of Comedy Playhouse, the long-running BBC \nanthology from the 1960s and 1970s that launched such programmes as Steptoe and Son, Last of the Summer Wine \nand Are You Being Served? \nJimmy Chisholm stars as Jimmy Miller, the leader of a motley gang of mountain rescue volunteers, \nwho is showing the ropes to new volunteer Conor on his first day, an initiation that naturally begins in \nthe pub, where characters include no-nonsense barmaid Jules (Sharon Rooney, My Mad Fat Diary).\n\n\nI hope you enjoy.\n\nGeneral\nComplete name                            : G:Millers Mountain S01E01 x264 RB58.mp4\nFormat                                   : MPEG-4\nFormat profile                           : Base Media\nCodec ID                                 : isom\nFile size                                : 299 MiB\nDuration                                 : 27mn 46s\nOverall bit rate mode                    : Constant\nOverall bit rate                         : 1 503 Kbps\nWriting application                      : Lavf54.63.104\n\nVideo\nID                                       : 1\nFormat                                   : AVC\nFormat/Info                              : Advanced Video Codec\nFormat profile                           : &lt;a class=&quot;__cf_email__&quot; href=&quot;/cdn-cgi/l/email-protection&quot; data-cfemail=&quot;a9e4c8c0c7e9e59a8798&quot;&gt;[email&amp;#160;protected]&lt;/a&gt;&lt;script cf-hash='f9e31' type=&quot;text/javascript&quot;&gt;\n/* &lt;![CDATA[ */!function(){try{var t=&quot;currentScript&quot;in document?document.currentScript:function(){for(var t=document.getElementsByTagName(&quot;script&quot;),e=t.length;e--;)if(t[e].getAttribute(&quot;cf-hash&quot;))return t[e]}();if(t&amp;&amp;t.previousSibling){var e,r,n,i,c=t.previousSibling,a=c.getAttribute(&quot;data-cfemail&quot;);if(a){for(e=&quot;&quot;,r=parseInt(a.substr(0,2),16),n=2;a.length-n;n+=2)i=parseInt(a.substr(n,2),16)^r,e+=String.fromCharCode(i);e=document.createTextNode(e),c.parentNode.replaceChild(e,c)}}}catch(u){}}();/* ]]&gt; */&lt;/script&gt;\nFormat settings, CABAC                   : Yes\nFormat settings, ReFrames                : 2 frames\nCodec ID                                 : avc1\nCodec ID/Info                            : Advanced Video Coding\nDuration                                 : 27mn 46s\nBit rate mode                            : Constant\nBit rate                                 : 1 404 Kbps\nWidth                                    : 832 pixels\nHeight                                   : 468 pixels\nDisplay aspect ratio                     : 16:9\nFrame rate mode                          : Constant\nFrame rate                               : 25.000 fps\nColor space                              : YUV\nChroma subsampling                       : 4:2:0\nBit depth                                : 8 bits\nScan type                                : Progressive\nBits/(Pixel*Frame)                       : 0.144\nStream size                              : 279 MiB (93%)\n\nAudio\nID                                       : 2\nFormat                                   : AAC\nFormat/Info                              : Advanced Audio Codec\nFormat profile                           : LC\nCodec ID                                 : 40\nDuration                                 : 27mn 46s\nBit rate mode                            : Constant\nBit rate                                 : 93.5 Kbps\nChannel(s)                               : 2 channels\nChannel positions                        : Front: L R\nSampling rate                            : 48.0 KHz\nCompression mode                         : Lossy\nStream size                              : 18.6 MiB (6%)","torrent":{"xt":"urn:btih:56e8164bfdf7bdce650f3026748aed55f536845d","amp;dn":"Millers+Mountain+S01E01+x264+RB58.mp4","amp;tr":["udp%3A%2F%2Ftracker.openbittorrent.com%3A80","udp%3A%2F%2Fopen.demonii.com%3A1337","udp%3A%2F%2Ftracker.coppersurfer.tk%3A6969","udp%3A%2F%2Fexodus.desync.com%3A6969"],"infoHash":"56e8164bfdf7bdce650f3026748aed55f536845d","infoHashBuffer":{"type":"Buffer","data":[86,232,22,75,253,247,189,206,101,15,48,38,116,138,237,85,245,54,132,93]},"announce":[],"urlList":[]}}